# xmcd
#
# Track frame offsets: 
#        200
#        20027
#        31552
#        49730
#        62260
#        74560
#        88427
#        102980
#        117402
#        130715
#        144592
#        160405
#        170535
#
# Disc length: 2451 seconds
#
# Revision: 0
# Processed by: cddbd v1.5.2PL0 Copyright (c) Steve Scherf et al.
# Submitted via: ExactAudioCopy v0.99pb4
#
DISCID=b509910d
DTITLE=C.D. Morris - Hoo Doo Man
DYEAR=1994
DGENRE=Blues
TTITLE0=Mississippi Hoo Doo Man
TTITLE1=A Good Fool
TTITLE2=Room With a View
TTITLE3=Don't Rock Me the Wrong Way
TTITLE4=Hard Times
TTITLE5=They Call Me the Breeze
TTITLE6=Red House
TTITLE7=Restless
TTITLE8=Leann
TTITLE9=Blues Power
TTITLE10=Don't You Know
TTITLE11=Before You Accuse Me
TTITLE12=Ain't Nobody's Business
EXTD=
EXTT0=
EXTT1=
EXTT2=
EXTT3=
EXTT4=
EXTT5=
EXTT6=
EXTT7=
EXTT8=
EXTT9=
EXTT10=
EXTT11=
EXTT12=
PLAYORDER=
